<?xml version="1.0" encoding="utf-8"?>
<!-- Generator: Adobe Illustrator 16.0.0, SVG Export Plug-In . SVG Version: 6.00 Build 0)  -->
<!DOCTYPE svg PUBLIC "-//W3C//DTD SVG 1.1//EN" "http://www.w3.org/Graphics/SVG/1.1/DTD/svg11.dtd">
<svg version="1.1"
	 id="svg2" xmlns:svg="http://www.w3.org/2000/svg" xmlns:rdf="http://www.w3.org/1999/02/22-rdf-syntax-ns#" xmlns:cc="http://creativecommons.org/ns#" xmlns:dc="http://purl.org/dc/elements/1.1/"
	 xmlns="http://www.w3.org/2000/svg" xmlns:xlink="http://www.w3.org/1999/xlink" x="0px" y="0px" width="683.96px"
	 height="208.44px" viewBox="30.711 267.816 683.96 208.44" enable-background="new 30.711 267.816 683.96 208.44"
	 xml:space="preserve">
<g id="g3132" transform="translate(662.98062,108.45475)">
	<path fill="#231F20" d="M-533.854,225.784c0-17.323-6.869-33.136-18.382-42.307l-20.125-15.953
		c-2.579-2.05-6.634-4.788-11.381-6.209c-3.037-0.938-6.177-1.413-9.332-1.413h-39.196l0.012,187.842l23.464,15.252l1.671-0.238
		c9.981-1.423,21.601-2.855,34.509-4.256c22.097-2.269,38.76-25.676,38.76-54.447c0-15.665-4.99-30.45-13.521-40.539
		C-538.843,254.113-533.854,240.362-533.854,225.784z M-588.293,314.252l-0.375-40.502h5.699c1.204,4.319,1.946,9.445,1.946,15.058
		C-581.022,300.357-584.261,309.585-588.293,314.252z M-583.051,196.374c1.252,3.769,2.029,8.318,2.029,13.409
		c0,11.369-3.865,20.048-8.271,23.316l-0.199-36.674L-583.051,196.374z"/>
	<path id="path3003" fill="#231F20" d="M-94.138,159.393h-25.346v171.813l21.614,20.041l25.573,2.122V179.108l-20.416-19.714
		H-94.138"/>
	<path id="path3005" fill="#231F20" d="M31.786,264.43c0.23-1.272,15.322-83.965,15.322-83.965l-20.594-21.052H-0.294
		c0,0-1.39,8.646-2.272,14.091c-5.319-5.761-12.985-14.091-12.985-14.091H-43.19c0,0,15.764,82.533,15.987,83.74
		c-0.19,1.199-15.096,93.961-15.096,93.961l29.3,22.296l17.49,2.073c0,0,0-10.135,0-15.649c7.35,5.728,24.098,18.766,24.098,18.766
		l23.102,3.201C51.691,367.801,32.026,265.717,31.786,264.43"/>
	<path id="path3007" fill="#231F20" d="M-163.629,301.644c0-11.002,0-123.152,0-123.152l-20.144-19.099h-27.067v167.633
		l21.477,18.797l48.982,2.448l-1.082-21.74C-141.463,326.532-158.702,307.173-163.629,301.644"/>
	<path id="path3009" fill="#231F20" d="M-478.483,196.57c4.882,0,21.036,0,21.036,0v-17.984l-20.074-19.22h-1.411l-46.817,0.041
		v174.348l21.168,16.673l47.135-2.96v-19.287c0,0-19.376-21.429-21.036-23.263c0-2.263,0-25.665,0-31.166c4.904,0,21.315,0,21.315,0
		v-19.439c0,0-19.449-19.459-21.315-21.335C-478.483,230.501-478.483,202.246-478.483,196.57"/>
	<path id="path3009_1_" fill="#231F20" d="M-392.339,196.57c4.882,0,21.036,0,21.036,0v-17.984l-20.074-19.22h-1.411l-46.817,0.041
		v169.348l21.168,16.673l47.135-0.96v-21.287c0,0-19.376-21.429-21.036-23.263c0-2.263,0-20.665,0-26.166c4.904,0,21.315,0,21.315,0
		v-19.439c0,0-19.449-19.459-21.315-21.335C-392.339,230.501-392.339,202.246-392.339,196.57"/>
	<path id="path3011" fill="#231F20" d="M-261.03,196.561c4.878,0,21.031,0,21.031,0v-17.984l-20.066-19.216l-1.418,0.004
		l-46.846,0.028v166.458l21.494,17.83l25.805,0.174c0,0,0-63.751,0-70.116c4.906,0,21.312,0.012,21.312,0.012v-19.439
		c0,0-19.456-19.459-21.312-21.335C-261.03,230.493-261.03,202.234-261.03,196.561"/>
	<path id="path3013" fill="#FFFFFF" d="M-113.885,328.008c0,0,6.543,0.324,17.766,1.135V164.372l-17.766,0.029V328.008"/>
	<path id="path3019" fill="#FFFFFF" d="M24.19,164.372H4.167l-10.06,63.572h-1.184l-10.432-63.572H-37.17l15.359,78.631
		l-14.845,91.9l19.095,1.816l9.837-75.765l1.207,0.019l9.533,77.88l20.946,2.344l-14.967-95.95L24.19,164.372"/>
	<path id="path3021" fill="#FFFFFF" d="M-187.378,164.352l-17.839,0.037v159.206c0,0,12.09,0.333,41.235,1.631v-16.145
		c0,0-3.261-0.341-23.396-1.034V164.352"/>
	<path id="path3023" fill="#FFFFFF" d="M-520.139,329.964c0,0,10.528-0.722,40.98-2.681v-16.263l-23.021,1.584v-56.994l23.021-0.018
		v-16.58l-23.113,0.008v-58.179h23.188v-16.453l-41.056,0.021V329.964"/>
	<path id="path3025" fill="#FFFFFF" d="M-302.729,322.29h17.999v-66.68l23.016-0.026v-16.576l-23.104,0.012v-58.179h23.189v-16.453
		l-41.1,0.012V322.29"/>
	<path fill="none" stroke="#D906F7" stroke-miterlimit="10" d="M-479.083,255.593"/>
	<path fill="#FFFFFF" d="M-593.074,338.024c19.131-1.964,34.719-22.888,34.719-49.971c0-16.922-6.067-31.841-15.296-40.654
		c9.235-8.155,15.296-21.95,15.296-37.615c0-25.063-15.544-45.382-34.719-45.382h-34.696l0.012,177.899
		C-617.247,340.803-605.523,339.374-593.074,338.024L-593.074,338.024z M-611.128,180.698l18.054-0.144
		c9.14,0,16.551,13.086,16.551,29.229c0,16.143-7.411,29.229-16.551,29.229h-17.738L-611.128,180.698z M-610.658,255.593h17.584
		c9.142,0,16.551,14.87,16.551,33.215c0,18.343-7.502,32.201-16.551,33.214l0,0.001c-5.826,0.632-11.493,1.281-16.951,1.946
		L-610.658,255.593z"/>
	<path fill="#FFFFFF" d="M-433.988,324.766c18.444-0.8,21.412-1.441,40.744-1.87v-16c-13.144,0.292-10.119,0.682-22.875,1.152
		l0-52.455h22.876v-16.581l-22.876,0v-58.151h22.876v-16.449l-40.743-0.004L-433.988,324.766z"/>
	<g>
		<g>
			<path fill="#231F20" d="M-322.462,248.31l-13.757-13.801h-23.964h-6.05v25.602l13.757,13.802h4.5h21.015h4.5v-4.5V252.81V248.31z
				"/>
		</g>
		<rect x="-361.734" y="239.009" fill="#FFFFFF" width="23.015" height="16.602"/>
	</g>
</g>
</svg>
